<svg width="281" height="74" viewBox="0 0 281 74" fill="none" xmlns="http://www.w3.org/2000/svg">
<path d="M280.458 101.849C265.933 107.59 251.406 113.331 236.624 119.174V7.76114V6.91057L235.881 7.32426C220.043 16.1404 204.358 24.857 188.599 33.6146C181.09 37.7878 173.564 41.9703 165.996 46.1773L165.203 46.6185L166 47.0532C168.525 48.4302 171.018 49.7881 173.489 51.1341C178.166 53.6816 182.765 56.1866 187.355 58.6985V144.029L182.815 146.358C169.61 153.132 156.278 159.97 142.708 166.947V74.7643V74.4728L142.455 74.3292C126.775 65.4522 111.282 56.6656 95.3515 47.6258L94.6048 47.202V48.0607V167.05C88.699 163.826 82.8692 160.639 77.0731 157.47C68.8472 152.974 60.6892 148.514 52.4784 144.038V30.9212V30.6358L52.2327 30.4907C42.4252 24.6973 32.6626 18.9261 22.8493 13.1251C14.9307 8.44405 6.97915 3.74352 -1.05573 -1.00404L-1.81008 -1.44976V-0.57357V119.183L-41.5 101.953V-69.0151C-10.3952 -50.6526 20.4274 -32.4473 51.5574 -14.0464L52.3118 -13.6004V-14.4768V-107.751C66.2463 -113.967 80.1238 -120.151 94.3132 -126.47V7.65266V7.93925L94.5605 8.08409C100.251 11.4175 105.939 14.751 111.647 18.0959C121.603 23.9305 131.618 29.7999 141.81 35.7641L142.563 36.2045V35.3326V-126.561C147.456 -124.514 152.313 -122.483 157.151 -120.459C167.268 -116.228 177.302 -112.032 187.417 -107.797V-14.4045V-13.5231L188.174 -13.9753C191.959 -16.2382 195.334 -18.2514 198.706 -20.263L198.773 -20.303L198.773 -20.3033C225.615 -36.358 252.436 -52.3945 279.278 -68.4311L279.279 -68.4314C279.558 -68.5986 279.862 -68.7481 280.187 -68.9003C280.272 -68.9401 280.359 -68.9804 280.447 -69.0214C280.451 -69.0231 280.455 -69.0248 280.458 -69.0265V101.849Z" stroke="url(#paint0_linear_5159_14918)" stroke-opacity="0.1"/>
<defs>
<linearGradient id="paint0_linear_5159_14918" x1="0.999998" y1="20.6882" x2="280.999" y2="20.0598" gradientUnits="userSpaceOnUse">
<stop stop-color="#F3B24B" stop-opacity="0"/>
<stop offset="0.704274" stop-color="#F3B24B"/>
</linearGradient>
</defs>
</svg>
